{
  "accessors": {
    "accessor_100": {
      "bufferView": "bufferView_0",
      "byteOffset": 53154,
      "byteStride": 0,
      "componentType": 5121,
      "count": 240,
      "max": [
        254,
        249
      ],
      "min": [
        17,
        1
      ],
      "type": "VEC2"
    },
    "accessor_116": {
      "bufferView": "bufferView_1",
      "byteOffset": 0,
      "byteStride": 0,
      "componentType": 5123,
      "count": 240,
      "type": "SCALAR",
      "min": [
        0
      ],
      "max": [
        239
      ]
    },
    "accessor_118": {
      "bufferView": "bufferView_0",
      "byteOffset": 0,
      "byteStride": 0,
      "componentType": 5123,
      "count": 240,
      "max": [
        65535,
        65535,
        65535
      ],
      "min": [
        0,
        0,
        0
      ],
      "type": "VEC3",
      "extensions": {
        "WEB3D_quantized_attributes": {
          "decodedMin": [
            -1.1717228889465332,
            4.124627113342285,
            -1.3611124753952026
          ],
          "decodedMax": [
            -0.18826048076152802,
            4.718550682067871,
            -0.7849257588386536
          ],
          "decodeMatrix": [
            0.000015006674421072789,
            0,
            0,
            0,
            0,
            0.000009062692740147798,
            0,
            0,
            0,
            0,
            0.000008792045724521998,
            0,
            -1.1717228889465332,
            4.124627113342285,
            -1.3611124753952026,
            1
          ]
        }
      }
    },
    "accessor_120": {
      "bufferView": "bufferView_0",
      "byteOffset": 53634,
      "byteStride": 0,
      "componentType": 5121,
      "count": 240,
      "max": [
        245,
        252
      ],
      "min": [
        3,
        1
      ],
      "type": "VEC2"
    },
    "accessor_136": {
      "bufferView": "bufferView_1",
      "byteOffset": 480,
      "byteStride": 0,
      "componentType": 5123,
      "count": 960,
      "type": "SCALAR",
      "min": [
        0
      ],
      "max": [
        959
      ]
    },
    "accessor_138": {
      "bufferView": "bufferView_0",
      "byteOffset": 1440,
      "byteStride": 0,
      "componentType": 5123,
      "count": 960,
      "max": [
        65535,
        65535,
        65535
      ],
      "min": [
        0,
        0,
        0
      ],
      "type": "VEC3",
      "extensions": {
        "WEB3D_quantized_attributes": {
          "decodedMin": [
            -2.108478546142578,
            4.200029373168945,
            -0.29506951570510864
          ],
          "decodedMax": [
            -1.6697452068328857,
            4.661794185638428,
            0.16314777731895447
          ],
          "decodeMatrix": [
            0.000006694641631337337,
            0,
            0,
            0,
            0,
            0.0000070460793845957495,
            0,
            0,
            0,
            0,
            0.00000699194770769914,
            0,
            -2.108478546142578,
            4.200029373168945,
            -0.29506951570510864,
            1
          ]
        }
      }
    },
    "accessor_140": {
      "bufferView": "bufferView_0",
      "byteOffset": 54114,
      "byteStride": 0,
      "componentType": 5121,
      "count": 960,
      "max": [
        252,
        255
      ],
      "min": [
        1,
        1
      ],
      "type": "VEC2"
    },
    "accessor_18": {
      "bufferView": "bufferView_0",
      "byteOffset": 7200,
      "byteStride": 0,
      "componentType": 5123,
      "count": 960,
      "max": [
        65535,
        65535,
        65535
      ],
      "min": [
        0,
        0,
        0
      ],
      "type": "VEC3",
      "extensions": {
        "WEB3D_quantized_attributes": {
          "decodedMin": [
            -2.01090407371521,
            4.4348835945129395,
            -0.5155655145645142
          ],
          "decodedMax": [
            -1.6072710752487183,
            4.8310627937316895,
            -0.04823627695441246
          ],
          "decodeMatrix": [
            0.00000615904476182943,
            0,
            0,
            0,
            0,
            0.00000604530707589456,
            0,
            0,
            0,
            0,
            0.000007130987069658987,
            0,
            -2.01090407371521,
            4.4348835945129395,
            -0.5155655145645142,
            1
          ]
        }
      }
    },
    "accessor_20": {
      "bufferView": "bufferView_0",
      "byteOffset": 56034,
      "byteStride": 0,
      "componentType": 5121,
      "count": 960,
      "max": [
        251,
        253
      ],
      "min": [
        0,
        3
      ],
      "type": "VEC2"
    },
    "accessor_38": {
      "bufferView": "bufferView_0",
      "byteOffset": 12960,
      "byteStride": 0,
      "componentType": 5123,
      "count": 240,
      "max": [
        65535,
        65535,
        65535
      ],
      "min": [
        0,
        0,
        0
      ],
      "type": "VEC3",
      "extensions": {
        "WEB3D_quantized_attributes": {
          "decodedMin": [
            -1.702526330947876,
            4.055161952972412,
            -1.478926658630371
          ],
          "decodedMax": [
            -1.0623191595077515,
            4.574460506439209,
            -0.9241873025894165
          ],
          "decodeMatrix": [
            0.00000976893524742694,
            0,
            0,
            0,
            0,
            0.000007923987998272632,
            0,
            0,
            0,
            0,
            0.0000084647799807882,
            0,
            -1.702526330947876,
            4.055161952972412,
            -1.478926658630371,
            1
          ]
        }
      }
    },
    "accessor_40": {
      "bufferView": "bufferView_0",
      "byteOffset": 57954,
      "byteStride": 0,
      "componentType": 5121,
      "count": 240,
      "max": [
        238,
        246
      ],
      "min": [
        16,
        7
      ],
      "type": "VEC2"
    },
    "accessor_58": {
      "bufferView": "bufferView_0",
      "byteOffset": 14400,
      "byteStride": 0,
      "componentType": 5123,
      "count": 240,
      "max": [
        65535,
        65535,
        65535
      ],
      "min": [
        0,
        0,
        0
      ],
      "type": "VEC3",
      "extensions": {
        "WEB3D_quantized_attributes": {
          "decodedMin": [
            -2.164156675338745,
            4.055161952972412,
            -1.3735766410827637
          ],
          "decodedMax": [
            -1.6212191581726074,
            4.574460506439209,
            -0.8175162076950073
          ],
          "decodeMatrix": [
            0.000008284695462976085,
            0,
            0,
            0,
            0,
            0.000007923987998272632,
            0,
            0,
            0,
            0,
            0.000008484938328950276,
            0,
            -2.164156675338745,
            4.055161952972412,
            -1.3735766410827637,
            1
          ]
        }
      }
    },
    "accessor_60": {
      "bufferView": "bufferView_0",
      "byteOffset": 58434,
      "byteStride": 0,
      "componentType": 5121,
      "count": 240,
      "max": [
        238,
        248
      ],
      "min": [
        5,
        7
      ],
      "type": "VEC2"
    },
    "accessor_76": {
      "bufferView": "bufferView_1",
      "byteOffset": 2400,
      "byteStride": 0,
      "componentType": 5123,
      "count": 9360,
      "type": "SCALAR",
      "min": [
        0
      ],
      "max": [
        9349
      ]
    },
    "accessor_78": {
      "bufferView": "bufferView_0",
      "byteOffset": 15840,
      "byteStride": 0,
      "componentType": 5123,
      "count": 5979,
      "max": [
        65535,
        65535,
        65535
      ],
      "min": [
        0,
        0,
        0
      ],
      "type": "VEC3",
      "extensions": {
        "WEB3D_quantized_attributes": {
          "decodedMin": [
            -1.9038989543914795,
            0.1616239994764328,
            -1.0161736011505127
          ],
          "decodedMax": [
            0.10301624983549118,
            4.606297969818115,
            0.4088791608810425
          ],
          "decodeMatrix": [
            0.00003062356304611232,
            0,
            0,
            0,
            0,
            0.00006782137743712035,
            0,
            0,
            0,
            0,
            0.000021744911299787216,
            0,
            -1.9038989543914795,
            0.1616239994764328,
            -1.0161736011505127,
            1
          ]
        }
      }
    },
    "accessor_80": {
      "bufferView": "bufferView_0",
      "byteOffset": 58914,
      "byteStride": 0,
      "componentType": 5121,
      "count": 5979,
      "max": [
        255,
        255
      ],
      "min": [
        1,
        0
      ],
      "type": "VEC2"
    },
    "accessor_98": {
      "bufferView": "bufferView_0",
      "byteOffset": 51714,
      "byteStride": 0,
      "componentType": 5123,
      "count": 240,
      "max": [
        65535,
        65535,
        65535
      ],
      "min": [
        0,
        0,
        0
      ],
      "type": "VEC3",
      "extensions": {
        "WEB3D_quantized_attributes": {
          "decodedMin": [
            -0.2492881417274475,
            3.869701862335205,
            -1.3245790004730225
          ],
          "decodedMax": [
            0.3048727810382843,
            4.389000415802002,
            -0.7726359963417053
          ],
          "decodeMatrix": [
            0.000008455953654775796,
            0,
            0,
            0,
            0,
            0.000007923987998272632,
            0,
            0,
            0,
            0,
            0.000008422110385768172,
            0,
            -0.2492881417274475,
            3.869701862335205,
            -1.3245790004730225,
            1
          ]
        }
      }
    }
  },
  "animations": {},
  "asset": {
    "generator": "collada2gltf@",
    "premultipliedAlpha": true,
    "profile": {
      "api": "WebGL",
      "version": "1.0.2"
    },
    "version": "1.0"
  },
  "bufferViews": {
    "bufferView_0": {
      "buffer": "buffer_0",
      "byteLength": 70872,
      "byteOffset": 0,
      "target": 34962
    },
    "bufferView_1": {
      "buffer": "buffer_0",
      "byteLength": 21120,
      "byteOffset": 70872,
      "target": 34963
    }
  },
  "buffers": {
    "buffer_0": {
      "type": "arraybuffer",
      "byteLength": 91992,
      "uri": "data:application/octet-stream;base64,"
    }
  },
  "cameras": {
    "Camera-camera": {
      "name": "Camera",
      "perspective": {
        "aspectRatio": 1.7777799367904663,
        "yfov": 0.48237427870788735,
        "zfar": 100,
        "znear": 0.10000000149011612
      },
      "type": "perspective"
    }
  },
  "materials": {
    "effect-ID1": {
      "name": "material-ID2",
      "technique": "technique0",
      "values": {
        "diffuse": [
          1,
          1,
          1,
          1
        ]
      }
    }
  },
  "meshes": {
    "rootNode_mesh_0": {
      "name": "rootNode_mesh",
      "primitives": [
        {
          "attributes": {
            "NORMAL": "accessor_20",
            "POSITION": "accessor_18"
          },
          "indices": "accessor_136",
          "material": "effect-ID1",
          "mode": 4
        },
        {
          "attributes": {
            "NORMAL": "accessor_40",
            "POSITION": "accessor_38"
          },
          "indices": "accessor_116",
          "material": "effect-ID1",
          "mode": 4
        },
        {
          "attributes": {
            "NORMAL": "accessor_60",
            "POSITION": "accessor_58"
          },
          "indices": "accessor_116",
          "material": "effect-ID1",
          "mode": 4
        },
        {
          "attributes": {
            "NORMAL": "accessor_80",
            "POSITION": "accessor_78"
          },
          "indices": "accessor_76",
          "material": "effect-ID1",
          "mode": 4
        },
        {
          "attributes": {
            "NORMAL": "accessor_100",
            "POSITION": "accessor_98"
          },
          "indices": "accessor_116",
          "material": "effect-ID1",
          "mode": 4
        },
        {
          "attributes": {
            "NORMAL": "accessor_120",
            "POSITION": "accessor_118"
          },
          "indices": "accessor_116",
          "material": "effect-ID1",
          "mode": 4
        },
        {
          "attributes": {
            "NORMAL": "accessor_140",
            "POSITION": "accessor_138"
          },
          "indices": "accessor_136",
          "material": "effect-ID1",
          "mode": 4
        }
      ]
    }
  },
  "nodes": {
    "Camera": {
      "camera": "Camera-camera",
      "children": [],
      "matrix": [
        0.6859210133552551,
        0.7276759743690491,
        0,
        0,
        -0.32401400804519653,
        0.30542099475860596,
        0.8953959941864014,
        0,
        0.651557981967926,
        -0.6141699552536011,
        0.44527098536491394,
        0,
        7.4811296463012695,
        -6.5076398849487305,
        5.3436598777771,
        1
      ],
      "name": "Camera"
    },
    "Lamp": {
      "children": [],
      "matrix": [
        -0.2908650040626526,
        0.9551709890365601,
        -0.055189099162817,
        0,
        -0.7711009979248047,
        -0.19988299906253815,
        0.6045249700546265,
        0,
        0.5663930177688599,
        0.21839100122451782,
        0.7946720123291016,
        0,
        4.076250076293945,
        1.0054500102996826,
        5.903859615325928,
        1
      ],
      "name": "Lamp"
    },
    "node_10": {
      "children": [
        "Lamp",
        "Camera"
      ],
      "matrix": [
        1,
        0,
        0,
        0,
        0,
        0,
        -1,
        0,
        0,
        1,
        0,
        0,
        0,
        0,
        0,
        1
      ],
      "name": "Y_UP_Transform",
      "meshes": []
    },
    "rootNode": {
      "children": [
        "node_10"
      ],
      "meshes": [
        "rootNode_mesh_0"
      ],
      "matrix": [
        1,
        0,
        0,
        0,
        0,
        1,
        0,
        0,
        0,
        0,
        1,
        0,
        0,
        0,
        0,
        1
      ]
    }
  },
  "programs": {
    "program_0": {
      "attributes": [
        "a_normal",
        "a_position"
      ],
      "fragmentShader": "input0FS",
      "vertexShader": "input0VS"
    }
  },
  "scene": "defaultScene",
  "scenes": {
    "defaultScene": {
      "nodes": [
        "rootNode"
      ]
    }
  },
  "shaders": {
    "input0FS": {
      "type": 35632,
      "uri": "data:text/plain;base64,"
    },
    "input0VS": {
      "type": 35633,
      "uri": "data:text/plain;base64,"
    }
  },
  "skins": {},
  "techniques": {
    "technique0": {
      "attributes": {
        "a_normal": "normal",
        "a_position": "position"
      },
      "parameters": {
        "diffuse": {
          "type": 35666
        },
        "light0Color": {
          "type": 35665,
          "value": [
            1,
            1,
            1
          ]
        },
        "light0ConstantAttenuation": {
          "type": 5126,
          "value": 1
        },
        "light0LinearAttenuation": {
          "type": 5126,
          "value": 0
        },
        "light0QuadraticAttenuation": {
          "type": 5126,
          "value": 0.001111089950427413
        },
        "light0Transform": {
          "node": "Lamp",
          "semantic": "MODELVIEW",
          "type": 35676
        },
        "modelViewMatrix": {
          "semantic": "MODELVIEW",
          "type": 35676
        },
        "normal": {
          "semantic": "NORMAL",
          "type": 35667
        },
        "normalMatrix": {
          "semantic": "MODELVIEWINVERSETRANSPOSE",
          "type": 35675
        },
        "position": {
          "semantic": "POSITION",
          "type": 35665
        },
        "projectionMatrix": {
          "semantic": "PROJECTION",
          "type": 35676
        }
      },
      "program": "program_0",
      "states": {
        "enable": [
          2929,
          2884
        ],
        "disable": []
      },
      "uniforms": {
        "u_diffuse": "diffuse",
        "u_light0Color": "light0Color",
        "u_light0ConstantAttenuation": "light0ConstantAttenuation",
        "u_light0LinearAttenuation": "light0LinearAttenuation",
        "u_light0QuadraticAttenuation": "light0QuadraticAttenuation",
        "u_light0Transform": "light0Transform",
        "u_modelViewMatrix": "modelViewMatrix",
        "u_normalMatrix": "normalMatrix",
        "u_projectionMatrix": "projectionMatrix"
      }
    }
  },
  "extensionsUsed": [
    "WEB3D_quantized_attributes"
  ],
  "images": {},
  "samplers": {},
  "textures": {}
}
