{
    "accessors" : [
        {
            "bufferView" : 0, 
            "componentType" : 5126, 
            "count" : 3, 
            "max" : [
                1.625
            ], 
            "min" : [
                0.0
            ], 
            "type" : "SCALAR"
        }, 
        {
            "bufferView" : 1, 
            "componentType" : 5126, 
            "count" : 9, 
            "max" : [
                0.0, 
                0.6838628649711609, 
                2.5255515575408936
            ], 
            "min" : [
                0.0, 
                0.0, 
                -0.0
            ], 
            "type" : "VEC3"
        }, 
        {
            "bufferView" : 2, 
            "componentType" : 5126, 
            "count" : 40, 
            "max" : [
                1.625
            ], 
            "min" : [
                0.0
            ], 
            "type" : "SCALAR"
        }, 
        {
            "bufferView" : 3, 
            "componentType" : 5126, 
            "count" : 40, 
            "max" : [
                0.0, 
                0.7933533191680908, 
                -0.0, 
                0.7071067690849304
            ], 
            "min" : [
                0.0, 
                0.7071067690849304, 
                -0.0, 
                0.6087614297866821
            ], 
            "type" : "VEC4"
        }, 
        {
            "bufferView" : 4, 
            "componentType" : 5126, 
            "count" : 1, 
            "max" : [
                0.7916666666666667
            ], 
            "min" : [
                0.7916666666666667
            ], 
            "type" : "SCALAR"
        }, 
        {
            "bufferView" : 5, 
            "componentType" : 5126, 
            "count" : 3, 
            "max" : [
                1.0, 
                1.0, 
                1.0
            ], 
            "min" : [
                0.0, 
                0.0, 
                0.0
            ], 
            "type" : "VEC3"
        }
    ], 
    "animations" : [
        {
            "channels" : [
                {
                    "sampler" : 0, 
                    "target" : {
                        "node" : 0, 
                        "path" : "translation"
                    }
                }, 
                {
                    "sampler" : 1, 
                    "target" : {
                        "node" : 0, 
                        "path" : "rotation"
                    }
                }, 
                {
                    "sampler" : 2, 
                    "target" : {
                        "node" : 0, 
                        "path" : "scale"
                    }
                }
            ], 
            "samplers" : [
                {
                    "input" : 0, 
                    "interpolation" : "CUBICSPLINE", 
                    "output" : 1
                }, 
                {
                    "input" : 2, 
                    "interpolation" : "LINEAR", 
                    "output" : 3
                }, 
                {
                    "input" : 4, 
                    "interpolation" : "CUBICSPLINE", 
                    "output" : 5
                }
            ]
        }
    ], 
    "asset" : {
        "generator" : "Khronos Blender glTF 2.0 exporter", 
        "version" : "2.0"
    }, 
    "bufferViews" : [
        {
            "buffer" : 0, 
            "byteLength" : 12, 
            "byteOffset" : 0
        }, 
        {
            "buffer" : 0, 
            "byteLength" : 108, 
            "byteOffset" : 12
        }, 
        {
            "buffer" : 0, 
            "byteLength" : 160, 
            "byteOffset" : 120
        }, 
        {
            "buffer" : 0, 
            "byteLength" : 640, 
            "byteOffset" : 280
        }, 
        {
            "buffer" : 0, 
            "byteLength" : 4, 
            "byteOffset" : 920
        }, 
        {
            "buffer" : 0, 
            "byteLength" : 36, 
            "byteOffset" : 924
        }
    ], 
    "buffers" : [
        {
            "byteLength" : 960, 
            "uri" : "text3D!!!.bin"
        }
    ], 
    "nodes" : [
        {
            "name" : "hello", 
            "rotation" : [
                0.0, 
                0.7071068286895752, 
                -0.0, 
                0.7071067690849304
            ], 
            "translation" : [
                0.0, 
                0.6838628649711609, 
                2.5255515575408936
            ]
        }
    ], 
    "scene" : 0, 
    "scenes" : [
        {
            "name" : "Scene", 
            "nodes" : [
                0
            ]
        }
    ]
}
